<?xml version="1.0" encoding="iso-8859-1"?>
<!-- Uploaded to: SVG Repo, www.svgrepo.com, Generator: SVG Repo Mixer Tools -->
<svg fill="#000000" version="1.1" id="Layer_1" xmlns="http://www.w3.org/2000/svg" xmlns:xlink="http://www.w3.org/1999/xlink" 
	 viewBox="0 0 512 512" xml:space="preserve">
<g>
	<g>
		<path d="M120.074,0v512h271.852V0H120.074z M376.232,64.746h-16.169v15.693h16.169v328.51h-23.493v15.693h23.493v71.665H135.766
			v-71.665h23.425v-15.693h-23.425V80.439h16.101V64.746h-16.101V15.693h240.466V64.746z"/>
	</g>
</g>
<g>
	<g>
		<path d="M216.133,440.272v39.708h79.733v-39.708H216.133z M280.172,464.287h-48.346v-8.322h48.346V464.287z"/>
	</g>
</g>
<g>
	<g>
		<rect x="328.676" y="440.339" width="31.386" height="15.693"/>
	</g>
</g>
<g>
	<g>
		<rect x="151.867" y="440.339" width="32.432" height="15.693"/>
	</g>
</g>
<g>
	<g>
		<rect x="175.93" y="408.953" width="160.07" height="15.693"/>
	</g>
</g>
<g>
	<g>
		<rect x="168.607" y="64.746" width="175.763" height="15.693"/>
	</g>
</g>
<g>
	<g>
		<rect x="215.686" y="32.313" width="16.739" height="15.693"/>
	</g>
</g>
<g>
	<g>
		<rect x="248.118" y="32.313" width="16.739" height="15.693"/>
	</g>
</g>
<g>
	<g>
		<rect x="280.551" y="32.313" width="14.647" height="15.693"/>
	</g>
</g>
<g>
	<g>
		
			<rect x="232.526" y="134.082" transform="matrix(0.7071 -0.7071 0.7071 0.7071 -24.7929 224.0016)" width="50.943" height="15.693"/>
	</g>
</g>
<g>
	<g>
		
			<rect x="199.394" y="208.123" transform="matrix(0.7071 -0.7071 0.7071 0.7071 -77.7328 244.2744)" width="113.209" height="15.693"/>
	</g>
</g>
<g>
	<g>
		
			<rect x="306.232" y="138.087" transform="matrix(0.7071 -0.7071 0.7071 0.7071 -7.6947 273.2908)" width="39.623" height="15.693"/>
	</g>
</g>
<g>
	<g>
		
			<rect x="216.516" y="286.184" transform="matrix(0.7071 -0.7071 0.7071 0.7071 -137.0343 257.2304)" width="50.943" height="15.693"/>
	</g>
</g>
</svg>